<svg xmlns="http://www.w3.org/2000/svg" viewBox="0 0 32 32">
  <rect width="32" height="32" fill="#ffffff"/>
  <!-- Top-left finder pattern -->
  <rect x="4" y="4" width="10" height="10" fill="#000"/>
  <rect x="6" y="6" width="6" height="6" fill="#fff"/>
  <rect x="8" y="8" width="2" height="2" fill="#000"/>
  <!-- Top-right finder pattern -->
  <rect x="18" y="4" width="10" height="10" fill="#000"/>
  <rect x="20" y="6" width="6" height="6" fill="#fff"/>
  <rect x="22" y="8" width="2" height="2" fill="#000"/>
  <!-- Bottom-left finder pattern -->
  <rect x="4" y="18" width="10" height="10" fill="#000"/>
  <rect x="6" y="20" width="6" height="6" fill="#fff"/>
  <rect x="8" y="22" width="2" height="2" fill="#000"/>
  <!-- Data modules -->
  <rect x="18" y="18" width="2" height="2" fill="#000"/>
  <rect x="21" y="18" width="2" height="2" fill="#000"/>
  <rect x="24" y="18" width="2" height="2" fill="#000"/>
  <rect x="18" y="21" width="2" height="2" fill="#000"/>
  <rect x="24" y="21" width="2" height="2" fill="#000"/>
  <rect x="18" y="24" width="2" height="2" fill="#000"/>
  <rect x="21" y="24" width="2" height="2" fill="#000"/>
  <rect x="24" y="24" width="2" height="2" fill="#000"/>
</svg>
